<svg width="1291" height="848" viewBox="0 0 1291 848" fill="none" xmlns="http://www.w3.org/2000/svg">
<g filter="url(#filter0_d_204_46)">
<path d="M68.5 1000.5C68.5 1000.5 706.93 730.233 832.122 577.254C935.285 451.193 769.319 220.026 924.5 170.5C1001.24 146.008 1048.45 198.678 1129 197.5C1233.69 195.969 1391.5 143 1391.5 143" stroke="#EEEEEE" stroke-width="2"/>
</g>
<g filter="url(#filter1_d_204_46)">
<path d="M-8 134.5C-8 134.5 293.532 43.2717 416 155C498.559 230.319 459.526 328.721 524 420C619.206 554.789 716.084 601.961 869 664C982.534 710.061 1512 852 1512 852" stroke="#EEEEEE" stroke-width="2"/>
</g>
<g filter="url(#filter2_d_204_46)">
<path d="M-35.5 500C-35.5 500 537.15 924.537 801 714.5C915.075 623.691 984.867 540.953 995 395.5C1011.15 163.688 456 -144.5 456 -144.5" stroke="#4800D2" stroke-width="2"/>
</g>
<g filter="url(#filter3_d_204_46)">
<path d="M105 977.5C105 977.5 314.905 217.859 647 146C931.932 84.3461 1560 449.5 1560 449.5" stroke="#4800D2" stroke-width="2"/>
</g>
<defs>
<filter id="filter0_d_204_46" x="58.1162" y="132.053" width="1343.7" height="879.365" filterUnits="userSpaceOnUse" color-interpolation-filters="sRGB">
<feFlood flood-opacity="0" result="BackgroundImageFix"/>
<feColorMatrix in="SourceAlpha" type="matrix" values="0 0 0 0 0 0 0 0 0 0 0 0 0 0 0 0 0 0 127 0" result="hardAlpha"/>
<feOffset/>
<feGaussianBlur stdDeviation="5"/>
<feComposite in2="hardAlpha" operator="out"/>
<feColorMatrix type="matrix" values="0 0 0 0 1 0 0 0 0 1 0 0 0 0 1 0 0 0 1 0"/>
<feBlend mode="normal" in2="BackgroundImageFix" result="effect1_dropShadow_204_46"/>
<feBlend mode="normal" in="SourceGraphic" in2="effect1_dropShadow_204_46" result="shape"/>
</filter>
<filter id="filter1_d_204_46" x="-18.2861" y="88.408" width="1540.54" height="774.556" filterUnits="userSpaceOnUse" color-interpolation-filters="sRGB">
<feFlood flood-opacity="0" result="BackgroundImageFix"/>
<feColorMatrix in="SourceAlpha" type="matrix" values="0 0 0 0 0 0 0 0 0 0 0 0 0 0 0 0 0 0 127 0" result="hardAlpha"/>
<feOffset/>
<feGaussianBlur stdDeviation="5"/>
<feComposite in2="hardAlpha" operator="out"/>
<feColorMatrix type="matrix" values="0 0 0 0 1 0 0 0 0 1 0 0 0 0 1 0 0 0 1 0"/>
<feBlend mode="normal" in2="BackgroundImageFix" result="effect1_dropShadow_204_46"/>
<feBlend mode="normal" in="SourceGraphic" in2="effect1_dropShadow_204_46" result="shape"/>
</filter>
<filter id="filter2_d_204_46" x="-46.0894" y="-155.371" width="1052.44" height="939.221" filterUnits="userSpaceOnUse" color-interpolation-filters="sRGB">
<feFlood flood-opacity="0" result="BackgroundImageFix"/>
<feColorMatrix in="SourceAlpha" type="matrix" values="0 0 0 0 0 0 0 0 0 0 0 0 0 0 0 0 0 0 127 0" result="hardAlpha"/>
<feOffset/>
<feGaussianBlur stdDeviation="5"/>
<feComposite in2="hardAlpha" operator="out"/>
<feColorMatrix type="matrix" values="0 0 0 0 0.478095 0 0 0 0 0.2 0 0 0 0 1 0 0 0 1 0"/>
<feBlend mode="normal" in2="BackgroundImageFix" result="effect1_dropShadow_204_46"/>
<feBlend mode="normal" in="SourceGraphic" in2="effect1_dropShadow_204_46" result="shape"/>
</filter>
<filter id="filter3_d_204_46" x="94.0386" y="127.987" width="1476.46" height="859.772" filterUnits="userSpaceOnUse" color-interpolation-filters="sRGB">
<feFlood flood-opacity="0" result="BackgroundImageFix"/>
<feColorMatrix in="SourceAlpha" type="matrix" values="0 0 0 0 0 0 0 0 0 0 0 0 0 0 0 0 0 0 127 0" result="hardAlpha"/>
<feOffset/>
<feGaussianBlur stdDeviation="5"/>
<feComposite in2="hardAlpha" operator="out"/>
<feColorMatrix type="matrix" values="0 0 0 0 0.478095 0 0 0 0 0.2 0 0 0 0 1 0 0 0 1 0"/>
<feBlend mode="normal" in2="BackgroundImageFix" result="effect1_dropShadow_204_46"/>
<feBlend mode="normal" in="SourceGraphic" in2="effect1_dropShadow_204_46" result="shape"/>
</filter>
</defs>
</svg>
